Coordinates
version=1
nRows=32
nColumns=12
inDegrees=yes

Units are S.I. units (second, meters, Newtons, ...)
Angles are in degrees

endheader
time	SC_y	SC_z	SC_x	AC_y	AC_z	AC_x	GH_y	GH_z	GH_yy	EL_x	PS_y
       0.0              -41.15          25.73          54.87          69.83         -13.58          18.58         -96.46         -2.661          93.79          137.2          108.2
    0.0164              -41.15          25.73          54.87          69.83         -13.58          18.58         -96.43         -2.663          93.76          137.2          108.2
    0.0328              -41.15          25.73          54.86          69.83         -13.57          18.57          -96.4         -2.665          93.74          137.2          108.2
   0.04919              -41.15          25.72          54.85          69.83         -13.57          18.57         -96.36         -2.667          93.71          137.2          108.2
   0.06559              -41.15          25.72          54.85          69.83         -13.57          18.57         -96.33         -2.669          93.69          137.2          108.2
   0.08199              -41.15          25.71          54.84          69.83         -13.56          18.57         -96.29         -2.672          93.66          137.2          108.2
   0.09839              -41.15          25.71          54.83          69.83         -13.56          18.56         -96.25         -2.674          93.63          137.2          108.2
    0.1148              -41.16          25.71          54.82          69.83         -13.55          18.56         -96.21         -2.677          93.59          137.2          108.2
    0.1312              -41.16           25.7          54.81          69.83         -13.55          18.56         -96.16          -2.68          93.56          137.2          108.3
    0.1476              -41.16          25.69           54.8          69.83         -13.54          18.56         -96.11         -2.683          93.52          137.2          108.3
     0.164              -41.16          25.69          54.79          69.83         -13.54          18.55         -96.06         -2.687          93.48          137.2          108.3
    0.1804              -41.16          25.68          54.78          69.82         -13.53          18.55          -96.0          -2.69          93.43          137.2          108.3
    0.1968              -41.16          25.68          54.77          69.82         -13.52          18.54         -95.94         -2.694          93.38          137.2          108.3
    0.2132              -41.17          25.67          54.75          69.82         -13.51          18.54         -95.87         -2.698          93.33          137.2          108.3
    0.2296              -41.17          25.66          54.74          69.82         -13.51          18.53          -95.8         -2.703          93.27          137.2          108.3
     0.246              -41.17          25.65          54.72          69.82          -13.5          18.53         -95.72         -2.708          93.21          137.2          108.3
    0.2624              -41.17          25.64          54.71          69.82         -13.49          18.52         -95.64         -2.714          93.15          137.2          108.3
    0.2788              -41.18          25.63          54.69          69.82         -13.48          18.52         -95.54         -2.719          93.07          137.2          108.4
    0.2952              -41.18          25.62          54.67          69.81         -13.46          18.51         -95.44         -2.726           93.0          137.2          108.4
    0.3116              -41.18          25.61          54.65          69.81         -13.45           18.5         -95.33         -2.733          92.91          137.2          108.4
     0.328              -41.19           25.6          54.62          69.81         -13.44           18.5         -95.21         -2.741          92.81          137.2          108.4
    0.3444              -41.19          25.58          54.59          69.81         -13.42          18.49         -95.08         -2.749          92.71          137.2          108.4
    0.3608              -41.19          25.56          54.56          69.81          -13.4          18.48         -94.93         -2.759          92.59          137.2          108.5
    0.3772               -41.2          25.55          54.53           69.8         -13.38          18.47         -94.76         -2.769          92.47          137.1          108.5
    0.3936              -41.21          25.53          54.49           69.8         -13.36          18.45         -94.58         -2.781          92.32          137.1          108.5
      0.41              -41.21           25.5          54.45           69.8         -13.34          18.44         -94.38         -2.794          92.17          137.1          108.6
    0.4263              -41.22          25.48          54.41          69.79         -13.31          18.42         -94.15         -2.808          91.99          137.1          108.6
    0.4427              -41.23          25.45          54.36          69.79         -13.28          18.41         -93.89         -2.825          91.79          137.1          108.7
    0.4591              -41.24          25.42           54.3          69.78         -13.25          18.39          -93.6         -2.843          91.56          137.1          108.7
    0.4755              -41.25          25.38          54.23          69.78         -13.21          18.37         -93.27         -2.864          91.31          137.0          108.8
    0.4919              -41.26          25.34          54.16          69.77         -13.17          18.34          -92.9         -2.888          91.01          137.0          108.8
    0.5083              -41.27          25.29          54.07          69.76         -13.12          18.31         -92.47         -2.916          90.68          137.0          108.9
